# xmcd
#
# Track frame offsets: 
#        150
#        21697
#        35208
#        50404
#        66872
#        80429
#        97637
#        108976
#        121753
#        134510
#        152142
#
# Disc length: 2199 seconds
#
# Revision: 0
# Processed by: cddbd v1.5.2PL0 Copyright (c) Steve Scherf et al.
# Submitted via: ExactAudioCopy v0.99pb4
#
DISCID=9108950b
DTITLE=Ronnie McNeir - Ronnie McNeir
DYEAR=1972
DGENRE=Soul
TTITLE0=Extra Extra
TTITLE1=Daddy's Coming Home
TTITLE2=The Tears In My Heart
TTITLE3=Gone Away
TTITLE4=Trouble's A Loser
TTITLE5=Young Girl
TTITLE6=You Better Make Sure
TTITLE7=I'm So Thankful
TTITLE8=In Summertime
TTITLE9=Keep Your Hands Off My Lady
TTITLE10=Girl You're Gonna Lose My Groove
EXTD=
EXTT0=
EXTT1=
EXTT2=
EXTT3=
EXTT4=
EXTT5=
EXTT6=
EXTT7=
EXTT8=
EXTT9=
EXTT10=
PLAYORDER=
